<?xml version="1.0" encoding="UTF-8"?>
<svg width="145px" height="51px" viewBox="0 0 145 51" version="1.1" xmlns="http://www.w3.org/2000/svg" xmlns:xlink="http://www.w3.org/1999/xlink" style="background: #000000;">
    <!-- Generator: Sketch 41.2 (35397) - http://www.bohemiancoding.com/sketch -->
    <title>Artboard Copy 18</title>
    <desc>Created with Sketch.</desc>
    <defs>
        <rect id="path-1" x="0" y="0" width="145" height="51" rx="8"></rect>
    </defs>
    <g id="Page-1" stroke="none" stroke-width="1" fill="none" fill-rule="evenodd">
        <g id="Artboard-Copy-18">
            <g id="download">
                <g id="Page-1">
                    <g>
                        <g id="Artboard">
                            <g id="download">
                                <g id="Rectangle-2-Clipped">
                                    <mask id="mask-2" fill="white">
                                        <use xlink:href="#path-1"></use>
                                    </mask>
                                    <g id="path-1"></g>
                                    <g id="Rectangle-2" mask="url(#mask-2)" stroke="#FFFFFF" stroke-width="8">
                                        <rect id="path-1" x="0" y="0" width="145" height="51" rx="8"></rect>
                                    </g>
                                </g>
                                <g id="DOWNLOAD" transform="translate(18.000000, 12.000000)" fill="#FFFFFF">
                                    <path d="M0.44,27 L0.44,0.54 L3.5,0.54 C7.1,0.54 9.044,1.26 10.088,3.276 C11.096,5.292 11.24,8.604 11.24,13.788 C11.24,18.972 11.096,22.248 10.088,24.264 C9.044,26.28 7.1,27 3.5,27 L0.44,27 Z M4.328,23.112 C5.66,23.112 6.416,22.968 6.812,21.672 C6.992,21.06 7.136,20.124 7.172,18.864 C7.208,17.604 7.208,15.912 7.208,13.752 C7.208,11.592 7.208,9.9 7.172,8.64 C7.136,7.416 6.992,6.48 6.812,5.832 C6.416,4.572 5.66,4.428 4.328,4.428 L4.328,23.112 Z M23.948,21.564 C23.912,22.644 23.696,23.616 23.3,24.444 C22.976,25.164 22.472,25.848 21.752,26.388 C21.032,26.964 20.06,27.288 18.764,27.288 C17.468,27.288 16.46,26.964 15.74,26.388 C15.02,25.848 14.552,25.164 14.228,24.444 C13.832,23.616 13.616,22.644 13.58,21.564 L13.58,5.976 C13.616,4.932 13.832,3.96 14.228,3.132 C14.552,2.412 15.02,1.692 15.74,1.152 C16.46,0.612 17.468,0.252 18.764,0.252 C20.06,0.252 21.032,0.612 21.752,1.152 C22.472,1.692 22.976,2.412 23.3,3.132 C23.696,3.96 23.912,4.932 23.948,5.976 L23.948,21.564 Z M20.06,5.976 C20.06,5.256 19.916,4.752 19.556,4.32 C19.376,4.14 19.088,4.032 18.764,4.032 C18.08,4.032 17.756,4.536 17.612,5.004 C17.504,5.292 17.468,5.616 17.468,5.976 L17.468,21.564 C17.468,22.32 17.648,22.824 18.008,23.22 C18.188,23.4 18.44,23.508 18.764,23.508 C19.448,23.508 19.772,23.076 19.916,22.536 C20.024,22.284 20.06,21.96 20.06,21.564 L20.06,5.976 Z M32.156,27 L29.132,27 L25.568,0.54 L29.168,0.54 L30.716,14.292 L30.788,15.156 L31.076,15.156 L31.184,14.292 L32.84,0.54 L35.648,0.54 L37.304,14.292 L37.412,15.156 L37.7,15.156 L37.772,14.292 L39.32,0.54 L42.92,0.54 L39.356,27 L36.332,27 L34.532,14.472 L34.316,12.924 L34.172,12.924 L33.956,14.472 L32.156,27 Z M48.896,13.212 L48.572,11.988 L48.356,11.988 L48.356,27 L44.792,27 L44.792,0.54 L48.248,0.54 L52.028,14.328 L52.352,15.552 L52.568,15.552 L52.568,0.54 L56.132,0.54 L56.132,27 L52.676,27 L48.896,13.212 Z M59.012,0.54 L62.9,0.54 L62.9,23.4 L68.048,23.4 L68.048,27 L59.012,27 L59.012,0.54 Z M79.748,21.564 C79.712,22.644 79.496,23.616 79.1,24.444 C78.776,25.164 78.272,25.848 77.552,26.388 C76.832,26.964 75.86,27.288 74.564,27.288 C73.268,27.288 72.26,26.964 71.54,26.388 C70.82,25.848 70.352,25.164 70.028,24.444 C69.632,23.616 69.416,22.644 69.38,21.564 L69.38,5.976 C69.416,4.932 69.632,3.96 70.028,3.132 C70.352,2.412 70.82,1.692 71.54,1.152 C72.26,0.612 73.268,0.252 74.564,0.252 C75.86,0.252 76.832,0.612 77.552,1.152 C78.272,1.692 78.776,2.412 79.1,3.132 C79.496,3.96 79.712,4.932 79.748,5.976 L79.748,21.564 Z M75.86,5.976 C75.86,5.256 75.716,4.752 75.356,4.32 C75.176,4.14 74.888,4.032 74.564,4.032 C73.88,4.032 73.556,4.536 73.412,5.004 C73.304,5.292 73.268,5.616 73.268,5.976 L73.268,21.564 C73.268,22.32 73.448,22.824 73.808,23.22 C73.988,23.4 74.24,23.508 74.564,23.508 C75.248,23.508 75.572,23.076 75.716,22.536 C75.824,22.284 75.86,21.96 75.86,21.564 L75.86,5.976 Z M81.296,27 L85.292,0.54 L90.044,0.54 L94.04,27 L90.26,27 L89.54,21.6 L85.796,21.6 L85.076,27 L81.296,27 Z M87.884,9.144 L87.776,8.46 L87.56,8.46 L87.452,9.144 L86.336,17.496 L89,17.496 L87.884,9.144 Z M95.84,27 L95.84,0.54 L98.9,0.54 C102.5,0.54 104.444,1.26 105.488,3.276 C106.496,5.292 106.64,8.604 106.64,13.788 C106.64,18.972 106.496,22.248 105.488,24.264 C104.444,26.28 102.5,27 98.9,27 L95.84,27 Z M99.728,23.112 C101.06,23.112 101.816,22.968 102.212,21.672 C102.392,21.06 102.536,20.124 102.572,18.864 C102.608,17.604 102.608,15.912 102.608,13.752 C102.608,11.592 102.608,9.9 102.572,8.64 C102.536,7.416 102.392,6.48 102.212,5.832 C101.816,4.572 101.06,4.428 99.728,4.428 L99.728,23.112 Z"></path>
                                </g>
                            </g>
                        </g>
                    </g>
                </g>
            </g>
        </g>
    </g>
</svg>