<?xml version="1.0" encoding="UTF-8"?>
<svg width="159px" height="27px" viewBox="0 0 159 27" version="1.1" xmlns="http://www.w3.org/2000/svg" xmlns:xlink="http://www.w3.org/1999/xlink">
    <!-- Generator: Sketch 41.2 (35397) - http://www.bohemiancoding.com/sketch -->
    <title>Artboard Copy 17</title>
    <desc>Created with Sketch.</desc>
    <defs></defs>
    <g id="Page-1" stroke="none" stroke-width="1" fill="none" fill-rule="evenodd">
        <g id="Artboard-Copy-17" fill="#FB2F2F">
            <path d="M6.884,26 L4.4,9.368 L4.256,8.252 L4.04,8.252 L4.04,26 L0.44,26 L0.44,-0.46 L5.192,-0.46 L7.496,11.636 L7.676,13.04 L7.748,13.04 L7.928,11.636 L10.232,-0.46 L14.984,-0.46 L14.984,26 L11.384,26 L11.384,8.252 L11.168,8.252 L11.024,9.368 L8.54,26 L6.884,26 Z M28.196,-0.46 L28.196,20.564 C28.16,21.644 27.944,22.616 27.548,23.444 C27.224,24.164 26.72,24.848 26,25.388 C25.28,25.964 24.308,26.288 23.012,26.288 C21.716,26.288 20.708,25.964 19.988,25.388 C19.268,24.848 18.8,24.164 18.476,23.444 C18.08,22.616 17.864,21.644 17.828,20.564 L17.828,-0.46 L21.716,-0.46 L21.716,20.564 C21.716,21.32 21.896,21.824 22.256,22.22 C22.436,22.4 22.688,22.508 23.012,22.508 C23.696,22.508 24.02,22.076 24.164,21.536 C24.272,21.284 24.308,20.96 24.308,20.564 L24.308,-0.46 L28.196,-0.46 Z M37.988,26 L35.972,14.84 L34.928,14.84 L34.928,26 L31.04,26 L31.04,-0.46 L34.928,-0.46 C39.572,-0.46 41.552,2.168 41.552,7.172 C41.552,9.8 40.868,12.176 39.392,13.184 L41.876,26 L37.988,26 Z M34.928,11.24 C35.468,11.24 36.188,11.168 36.764,10.664 C37.34,10.16 37.808,9.188 37.808,7.316 C37.808,5.444 37.34,4.436 36.764,3.932 C36.188,3.428 35.468,3.392 34.928,3.392 L34.928,11.24 Z M44.036,26 L44.036,-0.46 L47.096,-0.46 C50.696,-0.46 52.64,0.26 53.684,2.276 C54.692,4.292 54.836,7.604 54.836,12.788 C54.836,17.972 54.692,21.248 53.684,23.264 C52.64,25.28 50.696,26 47.096,26 L44.036,26 Z M47.924,22.112 C49.256,22.112 50.012,21.968 50.408,20.672 C50.588,20.06 50.732,19.124 50.768,17.864 C50.804,16.604 50.804,14.912 50.804,12.752 C50.804,10.592 50.804,8.9 50.768,7.64 C50.732,6.416 50.588,5.48 50.408,4.832 C50.012,3.572 49.256,3.428 47.924,3.428 L47.924,22.112 Z M57.428,-0.46 L66.32,-0.46 L66.32,3.536 L61.316,3.536 L61.316,10.484 L64.916,10.484 L64.916,14.732 L61.316,14.732 L61.316,22.004 L66.32,22.004 L66.32,26 L57.428,26 L57.428,-0.46 Z M75.428,26 L73.412,14.84 L72.368,14.84 L72.368,26 L68.48,26 L68.48,-0.46 L72.368,-0.46 C77.012,-0.46 78.992,2.168 78.992,7.172 C78.992,9.8 78.308,12.176 76.832,13.184 L79.316,26 L75.428,26 Z M72.368,11.24 C72.908,11.24 73.628,11.168 74.204,10.664 C74.78,10.16 75.248,9.188 75.248,7.316 C75.248,5.444 74.78,4.436 74.204,3.932 C73.628,3.428 72.908,3.392 72.368,3.392 L72.368,11.24 Z M87.02,26 L87.02,-0.46 L90.44,-0.46 C92.744,-0.46 94.544,-0.028 95.732,1.088 C96.92,2.204 97.532,3.932 97.532,6.56 C97.532,7.82 97.424,8.756 97.028,9.62 C96.632,10.484 96.02,11.204 95.12,12.032 C96.092,12.572 96.812,13.58 97.388,15.272 C97.676,16.1 97.82,17.18 97.82,18.512 C97.82,20.492 97.46,22.256 96.56,23.624 C95.66,24.992 94.112,25.892 91.808,26 L87.02,26 Z M90.908,10.448 C91.232,10.448 91.988,10.484 92.636,10.052 C93.284,9.62 93.788,8.756 93.788,6.92 C93.788,5.084 93.284,4.22 92.636,3.788 C91.988,3.356 91.232,3.392 90.908,3.392 L90.908,10.448 Z M90.908,22.148 C91.232,22.148 91.988,22.22 92.636,21.752 C93.284,21.284 93.788,20.24 93.788,18.08 C93.788,15.92 93.284,14.876 92.636,14.408 C91.988,13.94 91.232,14.012 90.908,14.012 L90.908,22.148 Z M99.044,26 L103.04,-0.46 L107.792,-0.46 L111.788,26 L108.008,26 L107.288,20.6 L103.544,20.6 L102.824,26 L99.044,26 Z M105.632,8.144 L105.524,7.46 L105.308,7.46 L105.2,8.144 L104.084,16.496 L106.748,16.496 L105.632,8.144 Z M113.588,-0.46 L117.476,-0.46 L117.476,22.4 L122.624,22.4 L122.624,26 L113.588,26 L113.588,-0.46 Z M124.208,-0.46 L128.096,-0.46 L128.096,22.4 L133.244,22.4 L133.244,26 L124.208,26 L124.208,-0.46 Z M134.108,26 L138.104,-0.46 L142.856,-0.46 L146.852,26 L143.072,26 L142.352,20.6 L138.608,20.6 L137.888,26 L134.108,26 Z M140.696,8.144 L140.588,7.46 L140.372,7.46 L140.264,8.144 L139.148,16.496 L141.812,16.496 L140.696,8.144 Z M148.652,26 L148.652,-0.46 L151.712,-0.46 C155.312,-0.46 157.256,0.26 158.3,2.276 C159.308,4.292 159.452,7.604 159.452,12.788 C159.452,17.972 159.308,21.248 158.3,23.264 C157.256,25.28 155.312,26 151.712,26 L148.652,26 Z M152.54,22.112 C153.872,22.112 154.628,21.968 155.024,20.672 C155.204,20.06 155.348,19.124 155.384,17.864 C155.42,16.604 155.42,14.912 155.42,12.752 C155.42,10.592 155.42,8.9 155.384,7.64 C155.348,6.416 155.204,5.48 155.024,4.832 C154.628,3.572 153.872,3.428 152.54,3.428 L152.54,22.112 Z" id="MURDER-BALLAD"></path>
        </g>
    </g>
</svg>